<?xml version="1.0" encoding="utf-8"?>
<svg version="1.0" xmlns="http://www.w3.org/2000/svg"
     width="1200px" height="1200px"
     viewBox="0 0 1200 1200" preserveAspectRatio="xMidYMid meet">
 <g fill="#ffffff">
  <path d="M187.5 901.9 c-2.2 -0.4 -6.4 -0.8 -9.4 -0.8 -5.7 -0.1 -15.1 -3.1 -26.1 -8.3 -9.6 -4.6 -24.4 -19.7 -29.3 -29.8 -5.5 -11.5 -9.3 -26.5 -10.8 -42.4 -1.6 -17.7 2.3 -51.1 8.2 -70.2 0.5 -1.7 0.9 -3.9 0.9 -4.9 0 -1 1.1 -6.8 2.5 -12.9 1.4 -6.1 3 -13.3 3.6 -16.1 0.5 -2.7 1.4 -6.8 1.9 -9 0.5 -2.2 1.6 -7.6 2.5 -12 0.9 -4.4 2.3 -10.9 3.2 -14.4 0.8 -3.5 1.9 -8.5 2.3 -11 2.2 -11.4 3.2 -16.2 4.9 -24.1 1.1 -4.7 2.4 -10.7 3 -13.5 0.5 -2.7 2.1 -10.4 3.6 -17 3 -13.8 6.2 -28.9 6.9 -32.5 0.2 -1.4 1.6 -7.9 3.1 -14.5 1.5 -6.6 3.1 -14 3.5 -16.5 0.4 -2.5 2 -9.9 3.4 -16.5 1.5 -6.6 3.1 -14 3.6 -16.5 0.5 -2.5 1.8 -8.5 2.8 -13.5 6 -27.6 7.5 -34.4 8.2 -38.5 0.4 -2.5 2 -9.9 3.5 -16.5 1.5 -6.6 3 -13.6 3.5 -15.5 2.4 -11.4 10.7 -31.9 17.9 -44.5 1.3 -2.2 3.5 -6 4.9 -8.5 7.2 -12.4 28.4 -36.2 38.7 -43.3 12.8 -8.9 31.2 -16.5 47.5 -19.7 13.5 -2.7 40.3 -3.8 50.3 -2.1 15.6 2.7 23.7 5.6 35.2 12.9 8.6 5.4 14.5 10.9 19.4 18.2 3.8 5.5 4.8 7.5 9.3 18.5 l2.4 6 264.4 0.5 264.5 0.5 0.3 239.3 0.2 239.2 -284.2 -0.2 -284.3 -0.3 -0.5 -104.5 c-0.3 -57.5 -0.6 -103.2 -0.8 -101.7 -0.1 1.5 -0.9 5.8 -1.8 9.5 -2.5 10.9 -2.9 12.7 -7.9 36.7 -1.4 6.6 -3 14 -3.5 16.5 -0.5 2.5 -1.8 8.6 -2.9 13.5 -1.1 5 -2.7 12.6 -3.6 17 -1.8 8.6 -4.5 21.5 -7.1 33.5 -3 13.6 -9.4 34 -11.6 36.5 -0.4 0.5 -0.8 1.5 -0.8 2.2 0 1.5 -6.4 14.8 -10.5 21.8 -6.9 11.8 -21.5 29.4 -31.5 38 -6 5.1 -18.3 14 -23 16.7 -10.6 6.1 -12.2 6.8 -13.8 6.8 -1 0 -2.2 0.4 -2.8 0.9 -1.3 1.2 -21.5 5.7 -31.5 7 -9.7 1.3 -26.5 1.3 -32.4 0z m725.5 -289.4 l0 -210.5 -248 0 -248 0 0 12.7 c0 17.1 -1.3 26.7 -7 53.3 -1 4.7 -2.6 12.1 -3.5 16.5 -1 4.4 -2.2 9.4 -2.9 11 -0.8 2.2 -1.2 47.1 -1.4 165.3 l-0.3 162.2 255.6 0 255.5 0 0 -210.5z m-684.7 200.6 c3.6 -1.6 8 -4.4 9.7 -6.3 3.8 -3.9 10 -13.3 10 -15.1 0 -0.7 0.4 -1.7 0.8 -2.2 1.1 -1.3 5.8 -16.6 7.2 -23.5 0.6 -3 1.5 -7.3 2 -9.5 0.5 -2.2 1.6 -7.6 2.5 -12 0.9 -4.4 2.5 -12 3.6 -17 1.1 -4.9 2.4 -11 2.9 -13.5 0.5 -2.5 2 -9.9 3.5 -16.5 1.4 -6.6 3 -14.2 3.6 -17 0.5 -2.7 1.4 -6.8 1.9 -9 0.5 -2.2 1.6 -7.1 2.4 -11 0.8 -3.8 2.4 -11.5 3.5 -17 1.2 -5.5 2.6 -12.5 3.2 -15.5 0.6 -3 2.2 -10.4 3.6 -16.5 1.3 -6 2.9 -13.2 3.4 -16 0.6 -2.7 1.4 -6.8 1.9 -9 0.5 -2.2 1.6 -7.1 2.4 -11 0.8 -3.8 2.4 -11.5 3.6 -17 1.2 -5.5 2.8 -12.9 3.5 -16.5 2.3 -11.3 5.7 -27.3 7 -33.5 1.9 -8.5 5.4 -25.1 6.6 -31 0.5 -2.7 1.4 -6.8 1.9 -9 0.5 -2.2 1.6 -7.1 2.4 -11 0.8 -3.8 2.2 -10.4 3.1 -14.5 2.9 -13.1 3 -18.2 0.5 -25.2 -4.7 -13.1 -12.7 -16.5 -26.3 -11.1 -4.9 2 -12.9 11 -16.6 18.8 -3.7 7.7 -7.2 20.1 -10.1 35.5 -0.9 4.9 -4.8 23.1 -8.1 38 -1.2 5.2 -2.4 11.5 -2.8 14 -0.8 5.2 -4.8 23 -6.2 27.6 -0.5 1.7 -0.9 4.1 -0.9 5.3 0 1.3 -0.7 4.6 -1.5 7.5 -1.4 4.8 -3.8 16.3 -5.1 24.1 -0.3 1.7 -1.4 6.8 -2.4 11.5 -1.1 4.7 -2.6 11.7 -3.4 15.5 -3.4 16.5 -5.8 27.4 -7.1 33.5 -2.1 8.9 -4.5 20.6 -5.4 26 -0.5 2.5 -1.6 7.9 -2.5 12 -1 4.1 -2.4 10.7 -3.2 14.5 -0.8 3.9 -1.9 8.8 -2.4 11 -0.5 2.2 -1.4 6.5 -2 9.5 -0.6 3 -1.8 8.4 -2.6 12 -1.7 7.6 -4.2 19.6 -5.4 26 -0.4 2.5 -1.8 8.4 -2.9 13.1 -1.2 4.8 -2.1 9.5 -2.1 10.5 0 1 -0.4 3.1 -0.9 4.8 -4.2 13.6 -2.2 26.9 4.9 33.8 1.5 1.4 9 4.6 11.2 4.8 0.3 0 3.5 -1.3 7.1 -2.9z"/>
  <path d="M610 703 l0 -14 70.5 0 70.5 0 0 14 0 14 -70.5 0 -70.5 0 0 -14z"/>
  <path d="M474.2 705.7 c-11.5 -11.6 -14.2 -7.1 32.3 -53.7 l39.5 -39.5 -39.5 -39.5 c-35.7 -35.7 -39.5 -39.7 -39.5 -42.7 0 -2.7 1.3 -4.5 7.4 -10.8 11.9 -12.1 6 -15.9 63 41.1 44.8 44.8 48.6 48.8 48.6 51.9 0 3.1 -3.8 7.2 -48.1 51.9 -48.1 48.5 -48.2 48.6 -52.3 48.6 -3.8 0 -4.7 -0.6 -11.4 -7.3z"/>
 </g>
 <g fill="none">
  <path d="M0 600 l0 -600 600 0 600 0 0 600 0 600 -600 0 -600 0 0 -600z m216.9 298.9 c10 -1.3 30.2 -5.8 31.5 -7 0.6 -0.5 1.8 -0.9 2.8 -0.9 2.9 0 15.8 -7.5 25.8 -14.9 22.2 -16.6 37.3 -34.9 49.2 -59.4 2.1 -4.3 3.8 -8.4 3.8 -9 0 -0.7 0.4 -1.7 0.8 -2.2 2.2 -2.5 8.6 -22.9 11.6 -36.5 2.6 -12 5.3 -24.9 7.1 -33.5 0.9 -4.4 2.5 -12 3.6 -17 1.1 -4.9 2.4 -11 2.9 -13.5 0.5 -2.5 2.1 -9.9 3.5 -16.5 3.8 -18.1 4.5 -21.6 5.5 -26 0.5 -2.2 1.6 -7.4 2.5 -11.5 0.8 -4.1 2.4 -11.5 3.5 -16.5 1.1 -4.9 2.2 -10.7 2.5 -12.7 2.1 -13.5 2.5 4.8 2.7 111.5 l0.3 115.2 281.3 0.3 281.2 0.2 -0.2 -236.2 -0.3 -236.3 -264.5 -0.5 -264.4 -0.5 -2.4 -6 c-4.5 -11 -5.5 -13 -9.3 -18.5 -8.7 -12.8 -24.9 -23.8 -41.4 -28.3 -16.9 -4.5 -36.6 -4.8 -57.5 -0.7 -16.3 3.1 -34.7 10.8 -47.5 19.7 -10.3 7.1 -31.5 30.9 -38.7 43.3 -1.4 2.5 -3.6 6.3 -4.9 8.5 -7.2 12.6 -15.5 33.1 -17.9 44.5 -0.5 1.9 -2 8.9 -3.5 15.5 -1.5 6.6 -3.1 14 -3.5 16.5 -0.7 4.1 -2.2 10.9 -8.2 38.5 -1 5 -2.3 11 -2.8 13.5 -0.5 2.5 -2.1 9.9 -3.6 16.5 -1.4 6.6 -3 14 -3.4 16.5 -0.4 2.5 -2 9.9 -3.5 16.5 -1.5 6.6 -2.9 13.1 -3.1 14.5 -0.7 3.6 -3.9 18.7 -6.9 32.5 -1.5 6.6 -3.1 14.3 -3.6 17 -0.6 2.8 -1.9 8.8 -3 13.5 -1.7 7.9 -2.7 12.7 -4.9 24.1 -0.4 2.5 -1.5 7.5 -2.3 11 -0.9 3.5 -2.3 10 -3.2 14.4 -0.9 4.4 -2 9.8 -2.5 12 -0.5 2.2 -1.4 6.3 -1.9 9 -0.6 2.8 -2.2 10 -3.6 16.1 -1.4 6.1 -2.5 11.9 -2.5 12.9 0 1 -0.4 3.2 -0.9 4.9 -3.4 11.1 -7 31.7 -8 46.6 -1.5 20.8 2.4 43 10.6 60 4.9 10.1 19.7 25.2 29.3 29.8 11 5.2 20.4 8.2 26.1 8.3 3 0 7.2 0.4 9.4 0.8 5.9 1.3 16.7 1.2 26.4 0z"/>
  <path d="M399.2 660.8 c0.2 -120.5 0.6 -166.1 1.4 -168.3 0.7 -1.6 1.9 -6.6 2.9 -11 0.9 -4.4 2.5 -11.8 3.5 -16.5 5.7 -26.6 7 -36.2 7 -53.3 l0 -12.7 251 0 251 0 0 213.5 0 213.5 -258.5 0 -258.6 0 0.3 -165.2z m348.8 42.2 l0 -11 -67.5 0 -67.5 0 0 11 0 11 67.5 0 67.5 0 0 -11z m-215.4 -39.3 c25.2 -25.5 46.9 -47.5 48.2 -48.9 l2.3 -2.5 -48.6 -48.7 c-26.8 -26.7 -48.9 -48.6 -49.2 -48.6 -0.4 0 -15.3 14.8 -15.3 15.3 0 0.2 18.2 18.5 40.5 40.7 22.3 22.3 40.5 40.9 40.5 41.4 0 0.6 -18.3 19.4 -40.7 41.8 l-40.7 40.8 7.4 7.5 c4.1 4.1 7.9 7.5 8.6 7.5 0.6 0 21.7 -20.9 47 -46.3z"/>
  <path d="M213 817.3 c-7.4 -2.6 -10.9 -7.4 -12.9 -18.2 -1.3 -6.6 -0.3 -19.2 2 -24.9 0.5 -1.3 0.9 -3.2 0.9 -4.4 0 -1.1 0.9 -5.9 2.1 -10.7 1.1 -4.7 2.5 -10.6 2.9 -13.1 1.2 -6.4 3.7 -18.4 5.4 -26 0.8 -3.6 2 -9 2.6 -12 0.6 -3 1.5 -7.3 2 -9.5 0.5 -2.2 1.6 -7.1 2.4 -11 0.8 -3.8 2.2 -10.4 3.2 -14.5 0.9 -4.1 2 -9.5 2.5 -12 0.9 -5.4 3.3 -17.1 5.4 -26 1.3 -6.1 3.7 -17 7.1 -33.5 0.8 -3.8 2.3 -10.8 3.4 -15.5 1 -4.7 2.1 -9.8 2.4 -11.5 1.3 -7.8 3.7 -19.3 5.1 -24.1 0.8 -2.9 1.5 -6.2 1.5 -7.5 0 -1.2 0.4 -3.6 0.9 -5.3 1.4 -4.6 5.4 -22.4 6.2 -27.6 0.4 -2.5 1.6 -8.8 2.8 -14 3.3 -14.9 7.2 -33.1 8.1 -38 4.6 -24.8 9.5 -37.6 18 -47.2 5.7 -6.5 10.5 -8.7 20 -9.5 11.8 -1 17 2.4 21 13.4 1.9 5.2 2.2 7.7 1.8 15 -0.3 4.8 -1.3 12.2 -2.2 16.3 -1 4.1 -2.4 10.7 -3.2 14.5 -0.8 3.9 -1.9 8.8 -2.4 11 -0.5 2.2 -1.4 6.3 -1.9 9 -1.2 5.9 -4.7 22.5 -6.6 31 -1.3 6.2 -4.7 22.2 -7 33.5 -0.7 3.6 -2.3 11 -3.5 16.5 -1.2 5.5 -2.8 13.2 -3.6 17 -0.8 3.9 -1.9 8.8 -2.4 11 -0.5 2.2 -1.3 6.3 -1.9 9 -0.5 2.8 -2.1 10 -3.4 16 -1.4 6.1 -3 13.5 -3.6 16.5 -0.6 3 -2 10 -3.2 15.5 -1.1 5.5 -2.7 13.2 -3.5 17 -0.8 3.9 -1.9 8.8 -2.4 11 -0.5 2.2 -1.4 6.3 -1.9 9 -0.6 2.8 -2.2 10.4 -3.6 17 -1.5 6.6 -3 14 -3.5 16.5 -0.5 2.5 -1.8 8.6 -2.9 13.5 -1.1 5 -2.7 12.6 -3.6 17 -0.9 4.4 -2 9.8 -2.5 12 -0.5 2.2 -1.4 6.5 -2 9.5 -1.4 6.9 -6.1 22.2 -7.2 23.5 -0.4 0.5 -0.8 1.5 -0.8 2.2 0 1.8 -6.2 11.2 -10 15.1 -3.9 4.2 -15 9.2 -19.8 9.2 -2.1 -0.1 -5.7 -0.8 -8.2 -1.7z"/>
 </g>
</svg>