<?xml version="1.0" standalone="no"?>
<!DOCTYPE svg PUBLIC "-//W3C//DTD SVG 20010904//EN"
 "http://www.w3.org/TR/2001/REC-SVG-20010904/DTD/svg10.dtd">
<svg version="1.0" xmlns="http://www.w3.org/2000/svg"
 width="600.000000pt" height="600.000000pt" viewBox="0 0 600.000000 600.000000"
 preserveAspectRatio="xMidYMid meet">

<g transform="translate(0.000000,600.000000) scale(0.100000,-0.100000)"
fill="#000000" stroke="none">
<path d="M1459 4382 c-88 -24 -186 -73 -241 -122 -55 -48 -144 -164 -185 -240
-66 -123 -68 -132 -238 -935 -58 -276 -130 -616 -171 -805 -61 -282 -65 -344
-31 -471 29 -107 65 -169 128 -218 82 -66 144 -84 284 -84 140 -1 219 17 310
68 204 115 353 338 404 607 5 29 22 109 36 178 15 69 42 197 60 285 65 309 60
333 63 -307 l2 -578 1410 0 1410 0 -2 1178 -3 1177 -1322 3 -1322 2 -35 74
c-41 86 -83 126 -176 170 -61 29 -73 31 -190 33 -93 2 -142 -2 -191 -15z
m3121 -1442 l0 -1070 -1295 0 -1296 0 3 823 3 822 28 120 c36 152 47 223 47
308 l0 67 1255 0 1255 0 0 -1070z m-2963 1025 c12 -14 25 -42 29 -62 7 -35 -6
-142 -26 -223 -16 -62 -29 -123 -55 -250 -37 -177 -92 -435 -121 -570 -14 -63
-41 -191 -61 -285 -19 -93 -39 -188 -44 -210 -5 -22 -20 -94 -34 -160 -42
-203 -104 -295 -197 -295 -113 0 -130 76 -75 335 15 66 35 163 47 215 20 93
60 284 81 385 6 28 15 66 19 85 4 19 20 94 34 165 15 72 38 180 51 240 13 61
40 187 60 280 20 94 43 192 51 220 16 55 55 117 88 139 50 32 120 29 153 -9z"/>
<path d="M2560 2895 l0 -35 205 0 205 0 0 35 0 35 -205 0 -205 0 0 -35z"/>
<path d="M3730 2880 l0 -40 230 0 230 0 0 40 0 40 -230 0 -230 0 0 -40z"/>
<path d="M3062 2488 l3 -53 338 -3 337 -2 0 55 0 55 -341 0 -340 0 3 -52z"/>
</g>
</svg>
