<?xml version="1.0" encoding="utf-8"?>
<svg version="1.0" xmlns="http://www.w3.org/2000/svg"
     width="600px" height="600px"
     viewBox="0 0 600 600" preserveAspectRatio="xMidYMid meet">

<g transform="translate(0.000000,600.000000) scale(0.100000,-0.100000)" fill="#FFFF00">
<path d="M1459 4382 c-88 -24 -186 -73 -241 -122 -55 -48 -144 -164 -185 -240
-66 -123 -68 -132 -238 -935 -58 -276 -130 -616 -171 -805 -61 -282 -65 -344
-31 -471 29 -107 65 -169 128 -218 82 -66 144 -84 284 -84 140 -1 219 17 310
68 204 115 353 338 404 607 5 29 22 109 36 178 15 69 42 197 60 285 65 309 60
333 63 -307 l2 -578 483 0 c265 0 550 -1 632 -1 83 -1 500 -1 928 0 l777 1 -2
1178 -3 1177 -1322 3 -1322 2 -35 74 c-41 86 -83 126 -176 170 -61 29 -73 31
-190 33 -93 2 -142 -2 -191 -15z m3121 -1442 l0 -1070 -1295 0 -1296 0 3 823
3 822 28 120 c36 152 47 223 47 308 l0 67 1255 0 1255 0 0 -1070z m-2963 1025
c12 -14 25 -42 29 -62 7 -35 -6 -142 -26 -223 -16 -62 -29 -123 -55 -250 -37
-177 -92 -435 -121 -570 -14 -63 -41 -191 -61 -285 -19 -93 -39 -188 -44 -210
-5 -22 -20 -94 -34 -160 -42 -203 -104 -295 -197 -295 -113 0 -130 76 -75 335
15 66 35 163 47 215 20 93 60 284 81 385 6 28 15 66 19 85 4 19 20 94 34 165
15 72 38 180 51 240 13 61 40 187 60 280 20 94 43 192 51 220 16 55 55 117 88
139 50 32 120 29 153 -9z"/>
<path d="M3919 3238 c-57 -139 -102 -255 -100 -258 6 -7 470 -199 497 -206 18
-5 24 1 34 30 11 35 8 56 -11 56 -5 0 -29 9 -54 20 -25 11 -65 29 -90 40 -25
11 -48 20 -51 20 -3 0 -20 7 -37 15 -18 8 -63 28 -102 44 -38 17 -69 34 -68
39 1 5 41 103 88 217 47 114 85 208 83 209 -2 0 -13 7 -25 14 -53 29 -54 27
-164 -240z"/>
<path d="M2385 3385 l-40 -34 203 -203 c111 -112 202 -208 202 -213 0 -5 -90
-100 -200 -210 l-200 -201 40 -39 41 -40 192 195 c106 107 215 219 242 248
l49 53 -240 240 c-131 131 -241 239 -244 239 -3 0 -23 -16 -45 -35z"/>
<path d="M3062 2488 l3 -53 338 -3 337 -2 0 55 0 55 -341 0 -340 0 3 -52z"/>
</g>
</svg>
